<?xml version="1.0" encoding="UTF-8"?>
<svg id="Layer_1" xmlns="http://www.w3.org/2000/svg" version="1.1" viewBox="0 0 1190.55 841.89">
  <!-- Generator: Adobe Illustrator 29.7.1, SVG Export Plug-In . SVG Version: 2.1.1 Build 8)  -->
  <defs>
    <style>
      .st0 {
        fill: #095786;
      }

      .st1 {
        fill: #ae0000;
      }

      .st2 {
        fill: #db4646;
      }

      .st3 {
        fill: #e6cea0;
      }

      .st4 {
        fill: #66b3e6;
      }

      .st5 {
        fill: #0090ab;
      }

      .st6 {
        fill: #414042;
      }
    </style>
  </defs>
  <polygon class="st3" points="147.61 548.03 75.02 504.99 75.02 428.77 147.61 471.81 147.61 548.03"/>
  <path class="st2" d="M161.61,442.9l-70-41.08,66.73-37.13c24.22,12.84,68.13,36.94,71.19,38.16l-67.92,40.04Z"/>
  <path class="st5" d="M250.27,505.51c-24.8,13.37-49.11,28.4-73.63,42.52v-77.78l73.63-42.52v77.78Z"/>
  <path class="st1" d="M227.11,251.66c2.38-.21,4.55,2.36,5.98,4.01,6.72,7.77,25.05,37.25,29.83,46.91,8.76,17.7,10,36.14-3.28,52.07-28.3,33.94-81.31,5.64-71.27-38.08,2.68-11.68,25.99-51.54,34.07-61.33,1.19-1.44,2.67-3.39,4.67-3.57Z"/>
  <path class="st0" d="M279.36,397.09c0-2.86-.74-4.69-2.64-6.69-1.08-1.13-20.93-12.74-22.19-12.96-2.39-.41-7.24,2.66-10.26,3.32-28.02,6.11-53.6-4.24-66.28-30.59-2.86-5.95-5.09-18.42-7.67-22.4-4.73-7.29-16.13.31-21.33,3.34-32.48,18.93-65.13,37.93-97.31,57.32-3.53,2.13-5.68,2.66-5.68,7.06l1.21,124.05c0,6.7,10.15,11.38,14.02,13.76,31.2,19.2,64.1,35.84,95.3,55.07,6.58,2.61,8.98.91,14.59-1.8,34.8-16.78,68.41-42.24,103.36-59.45,3.65-2.64,4.88-4.1,4.88-8.6,0-38.32,0-81.98,0-121.43ZM147.61,548.03l-72.59-43.04v-76.22l72.59,43.04v76.22ZM161.61,442.9l-70-41.08,66.73-37.13c24.22,12.84,68.13,36.94,71.19,38.16l-67.92,40.04ZM250.27,505.51c-24.8,13.37-49.11,28.4-73.63,42.52v-77.78l73.63-42.52v77.78Z"/>
  <path class="st0" d="M420.55,527.13c-19.81,0-35.86-17.84-35.86-39.85v-50.09c0-21.91,16.05-39.76,35.86-39.76h42.15c19.81,0,35.86,17.84,35.86,39.76v50.09c0,22.01-16.05,39.85-35.86,39.85h-42.15ZM472.64,487.28v-50.09c0-6.11-4.36-10.96-9.95-10.96h-42.15c-5.58,0-9.95,4.85-9.95,10.96v50.09c0,6.21,4.36,11.05,9.95,11.05h42.15c5.58,0,9.95-4.85,9.95-11.05Z"/>
  <path class="st0" d="M509.86,527.13v-129.7h25.91v6.3c3.23-5.82,6.54-6.3,9.95-6.3h32.29v28.8h-32.29c-5.58,0-9.95,4.85-9.95,10.96v89.95h-25.91Z"/>
  <path class="st0" d="M734.69,527.13v-89.95c0-3.01-.96-5.62-2.88-7.76-1.92-2.13-4.27-3.2-7.07-3.2h-26.88c-2.79,0-5.15,1.07-7.07,3.2-1.92,2.13-2.88,4.75-2.88,7.76v89.95h-25.91v-89.95c0-3.01-.96-5.62-2.88-7.76-1.92-2.13-4.28-3.2-7.07-3.2h-26.88c-2.79,0-5.15,1.07-6.98,3.1s-2.88,4.65-2.97,7.85v89.95h-25.91v-129.7h25.91v6.59c1.66-3.01,3.32-4.85,4.97-5.53s3.32-1.07,4.97-1.07h26.88c8.46,0,16.05,3.1,22.95,9.21,6.89-6.11,14.48-9.21,22.86-9.21h26.88c6.63,0,12.65,1.75,18.06,5.33,5.41,3.59,9.77,8.44,13,14.45,3.23,6.01,4.8,12.7,4.8,19.98v89.95h-25.91Z"/>
  <path class="st4" d="M858.5,527.13v-89.95c0-3.01-.87-5.62-2.6-7.76-1.74-2.13-3.87-3.2-6.39-3.2h-34.65c-2.6,0-4.74,1.07-6.39,3.1-1.66,2.04-2.52,4.65-2.6,7.85v89.95h-23.44v-129.7h23.44v6.88c1.5-3.1,3-5.04,4.5-5.82,1.5-.68,3-1.07,4.5-1.07h34.65c6,0,11.44,1.75,16.33,5.33,4.89,3.59,8.84,8.44,11.76,14.45,2.92,6.01,4.34,12.7,4.34,19.98v89.95h-23.44Z"/>
  <path class="st4" d="M929.11,527.13c-19.81,0-35.86-17.84-35.86-39.85v-54.26c0-19.88,16.05-35.59,36.03-35.59h37.96c19.98,0,36.03,15.71,36.03,35.59v35.59h-84.11v18.68c0,6.21,4.36,11.05,9.95,11.05l74.19-.89v28.8l-74.19.89ZM977.36,433.02c0-2.81-3.84-6.79-10.12-6.79h-37.96c-6.28,0-10.12,3.98-10.12,6.79v6.79h58.2v-6.79Z"/>
  <path class="st4" d="M1050.44,527.13c-19.81,0-35.86-17.84-35.86-39.85v-50.09c0-21.91,16.05-39.76,35.86-39.76h42.15c19.81,0,35.86,17.84,35.86,39.76v50.09c0,22.01-16.05,39.85-35.86,39.85h-42.15ZM1102.54,487.28v-50.09c0-6.11-4.36-10.96-9.95-10.96h-42.15c-5.58,0-9.95,4.85-9.95,10.96v50.09c0,6.21,4.36,11.05,9.95,11.05h42.15c5.58,0,9.95-4.85,9.95-11.05Z"/>
  <path class="st0" d="M373.93,424.46h-48.53v-25.95c0-6.11,4.36-10.96,9.95-10.96h63.23v-28.9h-63.23c-19.81,0-35.86,17.94-35.86,39.85v128.62h25.91v-73.77h48.76l-.22-28.9Z"/>
  <path class="st6" d="M1145,402.56c0,5.16-4.05,9.21-9.33,9.21s-9.38-4.05-9.38-9.21,4.16-9.1,9.38-9.1,9.33,4.05,9.33,9.1ZM1128.62,402.56c0,4.05,3,7.27,7.11,7.27s6.94-3.22,6.94-7.22-2.94-7.33-7-7.33-7.05,3.27-7.05,7.27ZM1134.23,407.34h-2.11v-9.1c.83-.17,2-.28,3.5-.28,1.72,0,2.5.28,3.16.67.5.39.89,1.11.89,2,0,1-.78,1.78-1.88,2.11v.11c.89.33,1.39,1,1.66,2.22.28,1.39.44,1.94.67,2.28h-2.28c-.28-.33-.44-1.17-.72-2.22-.16-1-.72-1.44-1.88-1.44h-1v3.66ZM1134.29,402.17h1c1.17,0,2.11-.39,2.11-1.33,0-.83-.61-1.39-1.94-1.39-.56,0-.94.06-1.17.11v2.61Z"/>
</svg>